<?xml version="1.0" standalone="no"?>
<!DOCTYPE svg PUBLIC "-//W3C//DTD SVG 20010904//EN"
 "http://www.w3.org/TR/2001/REC-SVG-20010904/DTD/svg10.dtd">
<svg version="1.0" xmlns="http://www.w3.org/2000/svg"
 width="482.000000pt" height="482.000000pt" viewBox="0 0 482.000000 482.000000"
 preserveAspectRatio="xMidYMid meet">
<metadata>
Created by potrace 1.14, written by Peter Selinger 2001-2017
</metadata>
<g transform="translate(0.000000,482.000000) scale(0.100000,-0.100000)"
fill="#000000" stroke="none">
<path d="M2484 4811 c13 -21 -29 -31 -160 -37 -318 -13 -474 -43 -694 -132
-281 -113 -423 -174 -463 -199 -112 -70 -246 -181 -383 -318 -159 -157 -228
-244 -309 -385 -75 -132 -219 -417 -248 -495 -45 -117 -128 -433 -137 -524
-12 -120 -3 -564 14 -691 8 -58 28 -145 44 -195 17 -49 49 -154 71 -233 50
-173 71 -220 160 -371 148 -249 278 -402 501 -588 247 -207 435 -325 660 -412
301 -117 554 -168 870 -176 288 -7 539 32 778 121 110 41 344 153 442 212 36
21 97 57 135 80 188 109 488 427 626 664 62 106 163 320 198 420 42 121 117
414 136 528 18 114 24 348 13 483 -13 163 -54 337 -140 591 -120 358 -176 474
-321 678 -174 243 -333 389 -658 601 -207 135 -216 139 -419 207 -279 92 -456
130 -617 130 -50 0 -53 2 -53 25 0 20 -5 25 -26 25 -14 0 -23 -4 -20 -9z"/>
<path d="M4184 808 l-19 -23 23 19 c21 18 27 26 19 26 -2 0 -12 -10 -23 -22z"/>
<path d="M3972 600 c-18 -17 -29 -30 -24 -30 5 0 21 14 37 30 37 38 30 38 -13
0z"/>
<path d="M3904 538 l-19 -23 23 19 c12 11 22 21 22 23 0 8 -8 2 -26 -19z"/>
<path d="M930 536 c0 -2 8 -10 18 -17 15 -13 16 -12 3 4 -13 16 -21 21 -21 13z"/>
<path d="M970 506 c0 -2 8 -10 18 -17 15 -13 16 -12 3 4 -13 16 -21 21 -21 13z"/>
<path d="M3849 493 c-13 -16 -12 -17 4 -4 16 13 21 21 13 21 -2 0 -10 -8 -17
-17z"/>
<path d="M1010 476 c0 -2 8 -10 18 -17 15 -13 16 -12 3 4 -13 16 -21 21 -21
13z"/>
<path d="M3779 443 c-13 -16 -12 -17 4 -4 16 13 21 21 13 21 -2 0 -10 -8 -17
-17z"/>
<path d="M1095 415 c11 -9 29 -21 40 -26 l20 -10 -20 16 c-11 9 -29 21 -40 26
l-20 10 20 -16z"/>
<path d="M3729 409 l-24 -20 28 17 c15 9 27 18 27 20 0 8 -8 4 -31 -17z"/>
<path d="M1327 279 c7 -7 15 -10 18 -7 3 3 -2 9 -12 12 -14 6 -15 5 -6 -5z"/>
<path d="M1367 259 c7 -7 15 -10 18 -7 3 3 -2 9 -12 12 -14 6 -15 5 -6 -5z"/>
<path d="M1450 220 c8 -5 20 -10 25 -10 6 0 3 5 -5 10 -8 5 -19 10 -25 10 -5
0 -3 -5 5 -10z"/>
<path d="M1500 200 c8 -5 20 -10 25 -10 6 0 3 5 -5 10 -8 5 -19 10 -25 10 -5
0 -3 -5 5 -10z"/>
<path d="M3160 141 c-60 -25 -230 -67 -365 -90 -60 -11 -96 -20 -80 -20 77 -2
475 95 490 119 8 12 9 13 -45 -9z"/>
<path d="M1748 113 c7 -3 16 -2 19 1 4 3 -2 6 -13 5 -11 0 -14 -3 -6 -6z"/>
<path d="M1888 73 c6 -2 18 -2 25 0 6 3 1 5 -13 5 -14 0 -19 -2 -12 -5z"/>
<path d="M2015 49 c50 -10 106 -18 125 -17 34 0 33 1 -10 10 -96 19 -146 27
-175 26 -16 0 11 -9 60 -19z"/>
<path d="M2218 23 c12 -2 32 -2 45 0 12 2 2 4 -23 4 -25 0 -35 -2 -22 -4z"/>
<path d="M2638 23 c7 -3 16 -2 19 1 4 3 -2 6 -13 5 -11 0 -14 -3 -6 -6z"/>
</g>
</svg>
